<?xml version="1.0" encoding="UTF-8" standalone="no"?>
<!DOCTYPE svg PUBLIC "-//W3C//DTD SVG 1.1//EN"
 "http://www.w3.org/Graphics/SVG/1.1/DTD/svg11.dtd">
<!-- Generated by graphviz version 2.40.1 (20161225.0304)
 -->
<!-- Title: %0 Pages: 1 -->
<svg width="242pt" height="98pt"
 viewBox="0.00 0.00 242.00 98.00" xmlns="http://www.w3.org/2000/svg" xmlns:xlink="http://www.w3.org/1999/xlink">
<g id="graph0" class="graph" transform="scale(1 1) rotate(0) translate(4 94)">
<title>%0</title>
<polygon fill="#ffffff" stroke="transparent" points="-4,4 -4,-94 238,-94 238,4 -4,4"/>
<!-- A -->
<g id="node1" class="node">
<title>A</title>
<ellipse fill="#add8e6" stroke="#add8e6" cx="45" cy="-81" rx="9" ry="9"/>
<text text-anchor="middle" x="45" y="-76.8" font-family="Times,serif" font-size="14.00" fill="#000000">A</text>
</g>
<!-- C -->
<g id="node3" class="node">
<title>C</title>
<ellipse fill="#add8e6" stroke="#add8e6" cx="225" cy="-9" rx="9" ry="9"/>
<text text-anchor="middle" x="225" y="-4.8" font-family="Times,serif" font-size="14.00" fill="#000000">C</text>
</g>
<!-- A&#45;&gt;C -->
<g id="edge1" class="edge">
<title>A&#45;&gt;C</title>
<path fill="none" stroke="#000000" d="M53.6818,-77.5273C81.5406,-66.3838 169.0766,-31.3694 207.0881,-16.1647"/>
<polygon fill="#000000" stroke="#000000" points="208.4205,-19.4015 216.4053,-12.4379 205.8207,-12.9022 208.4205,-19.4015"/>
</g>
<!-- D -->
<g id="node4" class="node">
<title>D</title>
<ellipse fill="#add8e6" stroke="#add8e6" cx="9" cy="-9" rx="9" ry="9"/>
<text text-anchor="middle" x="9" y="-4.8" font-family="Times,serif" font-size="14.00" fill="#000000">D</text>
</g>
<!-- A&#45;&gt;D -->
<g id="edge2" class="edge">
<title>A&#45;&gt;D</title>
<path fill="none" stroke="#000000" d="M40.8703,-72.7407C35.2281,-61.4562 24.9724,-40.9448 17.6175,-26.2351"/>
<polygon fill="#000000" stroke="#000000" points="20.6842,-24.542 13.0815,-17.163 14.4232,-27.6725 20.6842,-24.542"/>
</g>
<!-- B -->
<g id="node2" class="node">
<title>B</title>
<ellipse fill="#add8e6" stroke="#add8e6" cx="189" cy="-81" rx="9" ry="9"/>
<text text-anchor="middle" x="189" y="-76.8" font-family="Times,serif" font-size="14.00" fill="#000000">B</text>
</g>
<!-- B&#45;&gt;A -->
<g id="edge3" class="edge">
<title>B&#45;&gt;A</title>
<path fill="none" stroke="#000000" d="M179.9922,-81C156.9602,-81 95.5283,-81 64.0994,-81"/>
<polygon fill="#000000" stroke="#000000" points="64.0045,-77.5001 54.0044,-81 64.0044,-84.5001 64.0045,-77.5001"/>
</g>
<!-- B&#45;&gt;C -->
<g id="edge4" class="edge">
<title>B&#45;&gt;C</title>
<path fill="none" stroke="#000000" d="M193.1297,-72.7407C198.7719,-61.4562 209.0276,-40.9448 216.3825,-26.2351"/>
<polygon fill="#000000" stroke="#000000" points="219.5768,-27.6725 220.9185,-17.163 213.3158,-24.542 219.5768,-27.6725"/>
</g>
<!-- C&#45;&gt;D -->
<g id="edge5" class="edge">
<title>C&#45;&gt;D</title>
<path fill="none" stroke="#000000" d="M215.9937,-9C183.676,-9 73.0891,-9 28.1836,-9"/>
<polygon fill="#000000" stroke="#000000" points="28.0447,-5.5001 18.0447,-9 28.0447,-12.5001 28.0447,-5.5001"/>
</g>
<!-- D&#45;&gt;B -->
<g id="edge6" class="edge">
<title>D&#45;&gt;B</title>
<path fill="none" stroke="#000000" d="M17.6818,-12.4727C45.5406,-23.6162 133.0766,-58.6306 171.0881,-73.8353"/>
<polygon fill="#000000" stroke="#000000" points="169.8207,-77.0978 180.4053,-77.5621 172.4205,-70.5985 169.8207,-77.0978"/>
</g>
</g>
</svg>
