<?xml version="1.0" encoding="UTF-8" standalone="no"?>
<!DOCTYPE svg PUBLIC "-//W3C//DTD SVG 1.1//EN"
 "http://www.w3.org/Graphics/SVG/1.1/DTD/svg11.dtd">
<!-- Generated by graphviz version 2.40.1 (20161225.0304)
 -->
<!-- Title: %0 Pages: 1 -->
<svg width="242pt" height="184pt"
 viewBox="0.00 0.00 242.00 184.00" xmlns="http://www.w3.org/2000/svg" xmlns:xlink="http://www.w3.org/1999/xlink">
<g id="graph0" class="graph" transform="scale(1 1) rotate(0) translate(4 180)">
<title>%0</title>
<polygon fill="#ffffff" stroke="transparent" points="-4,4 -4,-180 238,-180 238,4 -4,4"/>
<!-- A -->
<g id="node1" class="node">
<title>A</title>
<ellipse fill="#add8e6" stroke="#add8e6" cx="225" cy="-81" rx="9" ry="9"/>
<text text-anchor="middle" x="225" y="-76.8" font-family="Times,serif" font-size="14.00" fill="#000000">A</text>
</g>
<!-- C -->
<g id="node3" class="node">
<title>C</title>
<ellipse fill="#add8e6" stroke="#add8e6" cx="81" cy="-95.4" rx="9" ry="9"/>
<text text-anchor="middle" x="81" y="-91.2" font-family="Times,serif" font-size="14.00" fill="#000000">C</text>
</g>
<!-- A&#45;&gt;C -->
<g id="edge1" class="edge">
<title>A&#45;&gt;C</title>
<path fill="none" stroke="#000000" d="M215.9922,-81.9008C192.9602,-84.204 131.5283,-90.3472 100.0994,-93.4901"/>
<polygon fill="#000000" stroke="#000000" points="99.6065,-90.0218 90.0044,-94.4996 100.3031,-96.9871 99.6065,-90.0218"/>
</g>
<!-- D -->
<g id="node4" class="node">
<title>D</title>
<ellipse fill="#add8e6" stroke="#add8e6" cx="45" cy="-167.4" rx="9" ry="9"/>
<text text-anchor="middle" x="45" y="-163.2" font-family="Times,serif" font-size="14.00" fill="#000000">D</text>
</g>
<!-- A&#45;&gt;D -->
<g id="edge2" class="edge">
<title>A&#45;&gt;D</title>
<path fill="none" stroke="#000000" d="M216.798,-84.9369C189.3887,-98.0934 100.5606,-140.7309 62.5349,-158.9832"/>
<polygon fill="#000000" stroke="#000000" points="60.7508,-155.9572 53.2501,-163.4399 63.78,-162.2679 60.7508,-155.9572"/>
</g>
<!-- B -->
<g id="node2" class="node">
<title>B</title>
<ellipse fill="#add8e6" stroke="#add8e6" cx="9" cy="-9" rx="9" ry="9"/>
<text text-anchor="middle" x="9" y="-4.8" font-family="Times,serif" font-size="14.00" fill="#000000">B</text>
</g>
<!-- B&#45;&gt;A -->
<g id="edge3" class="edge">
<title>B&#45;&gt;A</title>
<path fill="none" stroke="#000000" d="M17.735,-11.9117C49.8949,-22.6316 162.1395,-60.0465 206.6313,-74.8771"/>
<polygon fill="#000000" stroke="#000000" points="205.7993,-78.289 216.393,-78.131 208.013,-71.6483 205.7993,-78.289"/>
</g>
<!-- B&#45;&gt;C -->
<g id="edge4" class="edge">
<title>B&#45;&gt;C</title>
<path fill="none" stroke="#000000" d="M14.8921,-16.0705C26.6055,-30.1266 53.0357,-61.8428 68.6979,-80.6375"/>
<polygon fill="#000000" stroke="#000000" points="66.1371,-83.0317 75.2278,-88.4733 71.5147,-78.5504 66.1371,-83.0317"/>
</g>
<!-- C&#45;&gt;D -->
<g id="edge5" class="edge">
<title>C&#45;&gt;D</title>
<path fill="none" stroke="#000000" d="M76.8703,-103.6593C71.2281,-114.9438 60.9724,-135.4552 53.6175,-150.1649"/>
<polygon fill="#000000" stroke="#000000" points="50.4232,-148.7275 49.0815,-159.237 56.6842,-151.858 50.4232,-148.7275"/>
</g>
<!-- D&#45;&gt;B -->
<g id="edge6" class="edge">
<title>D&#45;&gt;B</title>
<path fill="none" stroke="#000000" d="M42.9613,-158.4299C37.2685,-133.3813 21.1092,-62.2806 13.3126,-27.9754"/>
<polygon fill="#000000" stroke="#000000" points="16.6456,-26.8474 11.0163,-17.8717 9.8196,-28.3988 16.6456,-26.8474"/>
</g>
</g>
</svg>
