<?xml version="1.0" encoding="UTF-8" standalone="no"?>
<!DOCTYPE svg PUBLIC "-//W3C//DTD SVG 1.1//EN"
 "http://www.w3.org/Graphics/SVG/1.1/DTD/svg11.dtd">
<!-- Generated by graphviz version 2.40.1 (20161225.0304)
 -->
<!-- Title: %0 Pages: 1 -->
<svg width="249pt" height="170pt"
 viewBox="0.00 0.00 249.00 170.00" xmlns="http://www.w3.org/2000/svg" xmlns:xlink="http://www.w3.org/1999/xlink">
<g id="graph0" class="graph" transform="scale(1 1) rotate(0) translate(4 166)">
<title>%0</title>
<polygon fill="#ffffff" stroke="transparent" points="-4,4 -4,-166 245,-166 245,4 -4,4"/>
<!-- A -->
<g id="node1" class="node">
<title>A</title>
<ellipse fill="#add8e6" stroke="#add8e6" cx="9" cy="-88.2" rx="9" ry="9"/>
<text text-anchor="middle" x="9" y="-84" font-family="Times,serif" font-size="14.00" fill="#000000">A</text>
</g>
<!-- C -->
<g id="node3" class="node">
<title>C</title>
<ellipse fill="#add8e6" stroke="#add8e6" cx="16.2" cy="-9" rx="9" ry="9"/>
<text text-anchor="middle" x="16.2" y="-4.8" font-family="Times,serif" font-size="14.00" fill="#000000">C</text>
</g>
<!-- A&#45;&gt;C -->
<g id="edge1" class="edge">
<title>A&#45;&gt;C</title>
<path fill="none" stroke="#000000" d="M9.8259,-79.1148C10.9544,-66.7019 13.0055,-44.1393 14.4765,-27.9586"/>
<polygon fill="#000000" stroke="#000000" points="17.9639,-28.2551 15.3837,-17.9793 10.9926,-27.6213 17.9639,-28.2551"/>
</g>
<!-- D -->
<g id="node4" class="node">
<title>D</title>
<ellipse fill="#add8e6" stroke="#add8e6" cx="153" cy="-153" rx="9" ry="9"/>
<text text-anchor="middle" x="153" y="-148.8" font-family="Times,serif" font-size="14.00" fill="#000000">D</text>
</g>
<!-- A&#45;&gt;D -->
<g id="edge2" class="edge">
<title>A&#45;&gt;D</title>
<path fill="none" stroke="#000000" d="M17.5766,-92.0595C40.6416,-102.4387 104.3505,-131.1077 135.4557,-145.1051"/>
<polygon fill="#000000" stroke="#000000" points="134.0932,-148.3299 144.6487,-149.2419 136.9658,-141.9465 134.0932,-148.3299"/>
</g>
<!-- B -->
<g id="node2" class="node">
<title>B</title>
<ellipse fill="#add8e6" stroke="#add8e6" cx="232.2" cy="-9" rx="9" ry="9"/>
<text text-anchor="middle" x="232.2" y="-4.8" font-family="Times,serif" font-size="14.00" fill="#000000">B</text>
</g>
<!-- B&#45;&gt;A -->
<g id="edge3" class="edge">
<title>B&#45;&gt;A</title>
<path fill="none" stroke="#000000" d="M223.4503,-12.1047C190.4697,-23.8075 73.2288,-65.4091 27.4768,-81.6437"/>
<polygon fill="#000000" stroke="#000000" points="26.1856,-78.388 17.9318,-85.0307 28.5265,-84.985 26.1856,-78.388"/>
</g>
<!-- B&#45;&gt;C -->
<g id="edge4" class="edge">
<title>B&#45;&gt;C</title>
<path fill="none" stroke="#000000" d="M223.1937,-9C190.876,-9 80.2891,-9 35.3836,-9"/>
<polygon fill="#000000" stroke="#000000" points="35.2447,-5.5001 25.2447,-9 35.2447,-12.5001 35.2447,-5.5001"/>
</g>
<!-- C&#45;&gt;D -->
<g id="edge5" class="edge">
<title>C&#45;&gt;D</title>
<path fill="none" stroke="#000000" d="M22.4335,-15.5616C43.2646,-37.489 110.7739,-108.5515 139.6735,-138.9721"/>
<polygon fill="#000000" stroke="#000000" points="137.3049,-141.5605 146.7299,-146.3999 142.3799,-136.7392 137.3049,-141.5605"/>
</g>
<!-- D&#45;&gt;B -->
<g id="edge6" class="edge">
<title>D&#45;&gt;B</title>
<path fill="none" stroke="#000000" d="M157.4851,-144.8453C170.0638,-121.9749 205.8693,-56.8741 222.935,-25.8455"/>
<polygon fill="#000000" stroke="#000000" points="226.0117,-27.5141 227.7641,-17.0652 219.8781,-24.1407 226.0117,-27.5141"/>
</g>
</g>
</svg>
